<?xml version="1.0" standalone="no"?>
<!DOCTYPE svg PUBLIC "-//W3C//DTD SVG 20010904//EN"
 "http://www.w3.org/TR/2001/REC-SVG-20010904/DTD/svg10.dtd">
<svg version="1.0" xmlns="http://www.w3.org/2000/svg"
 width="1640.000000pt" height="1640.000000pt" viewBox="0 0 1640.000000 1640.000000"
 preserveAspectRatio="xMidYMid meet">
<metadata>
Created by potrace 1.11, written by Peter Selinger 2001-2013
</metadata>
<g transform="translate(0.000000,1640.000000) scale(0.100000,-0.100000)"
fill="#000000" stroke="none">
<path d="M8149 16393 c-2 -24 -10 -272 -24 -763 -17 -545 -29 -1006 -40 -1540
-3 -135 -8 -324 -10 -420 -3 -96 -7 -296 -10 -445 -7 -343 -12 -545 -21 -815
-15 -429 -9 -1286 11 -1630 1 -25 6 -110 10 -190 4 -80 8 -161 10 -180 2 -19
6 -78 10 -130 3 -52 8 -115 10 -140 2 -25 7 -79 10 -120 7 -87 14 -160 20
-210 2 -19 7 -64 10 -100 8 -84 13 -100 31 -100 9 0 14 11 15 30 1 17 2 33 3
38 1 4 6 41 10 82 4 41 9 91 11 110 2 19 7 64 10 100 3 36 8 90 10 120 8 86
22 282 30 420 13 222 15 272 20 415 3 83 8 204 11 270 6 123 5 914 0 1040 -2
39 -7 187 -10 330 -4 143 -9 328 -11 410 -4 140 -9 338 -20 875 -17 743 -23
995 -30 1240 -3 102 -8 262 -10 355 -7 281 -18 637 -28 909 -1 22 -8 41 -14
43 -7 3 -13 1 -14 -4z"/>
<path d="M1810 14549 c0 -5 29 -40 64 -77 35 -37 84 -88 108 -113 24 -25 102
-108 175 -185 72 -76 150 -159 174 -184 23 -25 109 -115 190 -200 81 -85 170
-180 199 -210 96 -101 464 -487 645 -675 33 -34 141 -147 240 -250 99 -103
209 -218 245 -255 133 -138 430 -447 486 -507 33 -34 129 -135 214 -224 85
-89 171 -179 190 -199 19 -20 105 -111 190 -201 280 -296 818 -829 1066 -1055
17 -16 71 -65 119 -109 48 -44 102 -93 119 -109 69 -63 115 -104 196 -176 47
-41 87 -77 90 -80 44 -48 564 -479 578 -480 26 0 8 30 -99 160 -109 134 -431
507 -500 581 -20 21 -65 71 -100 111 -35 40 -93 103 -127 140 -35 37 -73 78
-84 90 -30 35 -239 257 -373 396 -229 238 -407 414 -780 767 -181 172 -187
178 -441 420 -260 248 -265 254 -478 458 -103 100 -214 207 -246 237 -32 31
-143 137 -247 237 -103 99 -216 207 -250 239 -33 33 -139 134 -235 226 -95 91
-191 183 -213 203 -22 21 -114 109 -205 195 -91 87 -181 172 -200 190 -19 18
-111 105 -205 194 -93 88 -201 191 -240 227 -38 37 -108 103 -155 148 -80 76
-110 95 -110 70z"/>
<path d="M13259 13833 c-87 -17 -159 -55 -214 -111 -59 -62 -84 -102 -107
-176 -109 -346 247 -654 578 -502 144 66 232 196 239 357 12 242 -157 425
-407 443 -14 1 -55 -4 -89 -11z"/>
<path d="M10670 11154 c-143 -27 -244 -103 -307 -232 -37 -73 -38 -80 -38
-181 0 -95 3 -112 28 -165 72 -154 204 -245 365 -251 130 -5 227 32 315 120
208 206 148 552 -116 676 -81 38 -164 49 -247 33z"/>
<path d="M8066 9028 c-92 -11 -232 -59 -320 -110 -99 -58 -238 -200 -295 -302
-234 -414 -118 -924 267 -1177 192 -126 418 -164 650 -108 65 16 204 81 265
125 166 119 296 314 338 509 7 33 14 67 16 75 2 8 4 67 4 130 2 203 -55 374
-174 535 -33 44 -166 175 -178 175 -4 0 -14 6 -21 13 -21 20 -148 83 -203 100
-110 35 -236 47 -349 35z"/>
<path d="M4259 8296 c-2 -2 -125 -7 -274 -11 -148 -3 -326 -8 -395 -10 -137
-4 -553 -14 -860 -20 -107 -3 -298 -7 -425 -10 -126 -3 -313 -8 -415 -10 -102
-2 -257 -7 -345 -9 -88 -3 -254 -8 -370 -11 -623 -18 -980 -30 -1007 -34 -5
-1 -8 -7 -8 -14 0 -10 29 -14 123 -16 67 -2 160 -5 207 -6 47 -2 177 -6 290
-9 113 -4 273 -9 355 -11 344 -11 669 -19 1135 -30 140 -3 334 -8 430 -10 96
-2 283 -7 415 -10 297 -6 623 -15 775 -20 202 -7 671 -17 790 -18 104 0 624
12 760 18 108 4 336 16 390 20 30 2 100 7 155 10 55 3 116 7 135 10 19 2 73 7
120 10 47 4 101 8 120 10 19 2 64 7 100 10 36 4 76 8 90 10 14 3 54 7 89 10
116 11 117 38 1 49 -92 10 -149 15 -195 21 -22 2 -71 7 -110 10 -38 3 -88 8
-110 10 -62 7 -271 22 -415 30 -149 8 -317 17 -420 22 -136 6 -1125 14 -1131
9z"/>
<path d="M11158 8295 c-1 -1 -88 -6 -193 -10 -104 -4 -212 -8 -240 -10 -27 -2
-108 -6 -180 -9 -71 -4 -152 -9 -180 -11 -27 -2 -86 -7 -130 -10 -89 -5 -189
-14 -250 -20 -22 -2 -74 -7 -115 -11 -41 -4 -82 -8 -90 -9 -8 -2 -50 -6 -93
-10 -113 -11 -120 -38 -12 -49 33 -4 76 -8 95 -11 84 -10 169 -19 315 -30 44
-3 96 -8 115 -10 19 -2 82 -7 140 -10 58 -3 128 -8 155 -9 28 -2 118 -7 200
-11 83 -4 184 -8 225 -10 435 -21 942 -21 1540 0 173 6 723 19 1235 30 160 3
358 8 440 10 83 2 269 7 415 10 146 3 319 8 385 10 66 2 215 7 330 10 116 3
269 8 340 10 72 2 229 7 350 11 285 9 278 8 283 22 2 7 0 13 -5 13 -26 4 -575
22 -1018 34 -121 3 -283 8 -360 10 -77 3 -248 7 -380 10 -132 3 -319 8 -415
10 -96 2 -294 7 -440 10 -146 3 -341 7 -435 10 -93 2 -282 7 -420 11 -137 3
-295 8 -350 10 -125 5 -1252 14 -1257 9z"/>
<path d="M9215 7070 c-5 -7 126 -182 165 -220 3 -3 30 -34 60 -70 30 -36 57
-67 60 -70 3 -3 61 -70 130 -150 68 -80 127 -147 130 -150 3 -3 43 -48 90
-100 47 -52 90 -100 95 -106 212 -232 252 -275 555 -594 189 -200 616 -618
950 -930 25 -23 124 -118 220 -210 96 -92 198 -189 225 -215 28 -26 136 -130
240 -230 105 -101 219 -211 255 -245 36 -34 155 -148 264 -254 425 -408 473
-454 571 -547 55 -53 152 -145 215 -205 116 -110 248 -236 325 -309 44 -43
330 -314 405 -384 25 -24 103 -98 174 -164 71 -67 140 -132 153 -145 25 -23
49 -21 36 3 -7 11 -93 104 -284 305 -76 80 -249 262 -319 337 -41 43 -150 158
-242 254 -91 96 -181 190 -199 209 -18 19 -112 118 -210 220 -97 102 -200 210
-229 240 -29 30 -143 149 -253 263 -111 115 -222 230 -247 257 -25 26 -127
133 -226 236 -221 229 -282 293 -664 694 -19 20 -109 115 -200 210 -320 337
-649 670 -820 830 -30 29 -118 111 -195 183 -77 73 -166 157 -199 187 -76 69
-164 150 -186 170 -9 8 -54 49 -100 90 -47 41 -87 77 -90 80 -72 72 -629 540
-643 540 -3 0 -9 -5 -12 -10z"/>
<path d="M8146 6713 c-3 -10 -8 -49 -11 -88 -4 -38 -8 -81 -11 -95 -2 -14 -6
-56 -9 -95 -3 -38 -8 -90 -10 -115 -12 -105 -27 -334 -40 -570 -4 -74 -8 -157
-10 -185 -19 -262 -26 -1175 -12 -1615 14 -432 19 -604 32 -1225 13 -615 21
-960 30 -1275 14 -492 16 -575 20 -690 2 -69 7 -226 11 -350 3 -124 7 -252 9
-285 1 -33 3 -75 4 -93 1 -22 5 -32 14 -30 14 5 13 -7 21 268 4 118 9 265 11
325 2 61 6 216 10 345 4 129 8 294 10 365 2 72 6 236 10 365 3 129 7 316 10
415 5 189 13 569 20 890 6 302 16 672 31 1185 14 495 -1 1327 -31 1675 -3 28
-7 93 -10 145 -5 93 -11 174 -20 275 -3 28 -7 82 -10 120 -3 39 -7 84 -10 100
-2 17 -7 62 -11 100 -3 39 -8 77 -10 85 -1 8 -3 27 -3 43 -1 30 -26 38 -35 10z"/>
<path d="M5443 6026 c-240 -89 -347 -360 -232 -588 146 -289 555 -304 731 -28
97 151 76 372 -48 502 -84 90 -175 130 -304 134 -68 2 -97 -2 -147 -20z"/>
<path d="M2955 3365 c-154 -42 -243 -107 -302 -220 -147 -282 54 -618 369
-616 150 0 293 83 367 211 30 53 52 137 52 202 0 189 -106 338 -286 405 -35
13 -173 25 -200 18z"/>
</g>
</svg>
